<svg xmlns="http://www.w3.org/2000/svg" viewBox="64.3 0 1825.3 229.7">
    <path fill="#D23214" d="M475.9 5.6h-58.4v81.7l58.4-58.4zM344.7 137.9V5.6h-57.8v132.9c0 25.6 7.2 45.1 20.6 59.5l41.2-41.2c-2.9-5.5-4-11.6-4-18.9zm154-132.3v1.1l.6-1.1zm406.6 107.9c0-32.8-12.8-60.6-32.8-80.6l-37.8 37.8c11.1 10.6 16.1 25.6 16.1 42.8 0 33.4-21.1 59-59 59-18.4 0-32.8-6.7-43.4-16.1l-37.3 37.3c21.1 21.1 49.5 33.4 81.2 33.4 60.2-.2 113-46.9 113-113.6z"/>
    <path fill="#142355" d="M732.9 113.5c0-33.4 21.1-59 59-59 18.4 0 32.8 6.1 42.8 16.1l37.8-37.8C851.4 12.2 823 .6 791.8.6c-60.6 0-113.5 46.7-113.5 113.5 0 32.8 12.2 60.6 32.3 80.6l37.8-37.8c-10-11.2-15.5-26.8-15.5-43.4zM380.8 226.4c54.5 0 95.1-28.9 95.1-87.9V28.9l-57.8 58.4v50.6c0 25-11.7 38.9-36.2 38.9-17.2 0-28.4-7.2-33.4-20L307.4 198c16.1 18.9 42.8 28.4 73.4 28.4zm234.2-4.5V54.5h57.3V5.6h-173l-.6 1.1v47.8H556v167.4z"/>
    <path fill="#D23214" d="M1188.4 5.6h-57.8v215.8l57.8-58.4zm27.8 0v48.9h58.4v22.8l71.8-71.7zM220.6 221.9h60.1L176.1 1.7c-1.1-2.2-2.8-2.2-3.9 0L67.1 221.9h57.3l6.7-15h83.4l6.1 15zm-49.5-111.2l22.8 52.3h-45.6l22.8-52.3zM1048.2 5.6l-42.8 100.7L961.5 5.6h-62.3l102.3 220.2c1.1 2.2 2.8 2.2 3.9 0L1108.3 5.6h-60.1z"/>
    <path fill="none" d="M1577.2 90.1c0-21.1-9.5-35.6-35.6-35.6h-21.1v73.4h21.1c26.1 0 35.6-16.1 35.6-37.8z"/>
    <path fill="#142355" d="M1433.7 194.7c0-18.9-16.1-31.7-32.8-31.7-17.2 0-32.8 12.8-32.8 31.7s15.6 31.7 32.8 31.7c17.2.5 32.8-12.3 32.8-31.7zm86.2-22.3h21.1l32.3 48.9h62.8l-39.5-59.5c25.6-13.9 39.5-39.5 39.5-70.6 0-48.9-33.4-85.7-91.8-85.7h-82.9v216.4h58.4l.1-49.5zm0-117.9h21.1c26.1 0 35.6 15 35.6 35.6 0 21.1-9.5 37.8-35.6 37.8h-21.1V54.5zm-129-48.9h-45.1l-71.2 71.2v145.1h57.9V54.5h58.4zm-202.5 156.8l-57.8 58.4v1.1h57.8z"/>
    <path fill="#D23214" d="M1884.7 113.5c0-32.8-12.8-60.6-32.8-80.6l-37.8 37.8c11.1 10.6 16.1 25.6 16.1 42.8 0 33.4-21.1 59-59 59-18.4 0-32.8-6.7-43.4-16.1l-37.8 37.8c21.1 21.1 49.5 33.4 81.2 33.4 60.7-.7 113.5-47.4 113.5-114.1z"/>
    <path fill="#142355" d="M1712.3 113.5c0-33.4 21.1-59 59-59 18.4 0 32.8 6.1 42.8 16.1l37.8-37.8C1830.8 12.2 1802.4.5 1771.3.5c-60.6 0-113.5 46.7-113.5 113.5 0 32.8 12.2 60.6 32.3 80.6l37.8-37.8c-10-11.1-15.6-26.7-15.6-43.3z"/>
</svg>
